<svg viewBox="0 0 997 240" height="90" fill="black" xmlns="http://www.w3.org/2000/svg" >
<path fill-rule="evenodd" clip-rule="evenodd" d="M973.484 229.185L26.4059 228.737L25.7939 27.5013L973.484 11.5913V229.185Z" fill="#FBBBD3"/>
<path fill-rule="evenodd" clip-rule="evenodd" d="M36.2241 18.5225C35.7481 18.5225 35.3551 18.1135 35.3391 17.5955C35.3231 17.0665 35.7071 16.6235 36.1971 16.6055L254.218 12.6735C254.734 12.6445 255.118 13.0745 255.133 13.6005C255.149 14.1295 254.766 14.5735 254.276 14.5915L36.2541 18.5225H36.2241Z" fill="white"/>
<path fill-rule="evenodd" clip-rule="evenodd" d="M71.4164 239.319L71.2004 239.291L15.9934 238.404C15.6004 238.298 15.3234 237.918 15.3214 237.48L15.0084 184.245C15.0054 183.715 15.3994 183.282 15.8884 183.279H15.8944C16.3814 183.279 16.7784 183.704 16.7814 184.231L17.0904 236.724L71.6304 237.429C72.1044 237.558 72.3934 238.079 72.2754 238.591C72.1744 239.029 71.8124 239.319 71.4164 239.319Z" fill="white"/>
<path fill-rule="evenodd" clip-rule="evenodd" d="M779.448 6.86049C778.972 6.86049 778.578 6.45049 778.563 5.93349C778.547 5.40449 778.93 4.96049 779.42 4.94249L962.793 0.500488C963.272 0.532488 963.692 0.899488 963.708 1.42649C963.724 1.95649 963.34 2.40049 962.85 2.41749L779.478 6.86049H779.448Z" fill="white"/>
<path fill-rule="evenodd" clip-rule="evenodd" d="M984.431 242.29H984.424L927.845 241.782C927.356 241.777 926.962 241.345 926.966 240.814C926.97 240.289 927.366 239.864 927.852 239.864H927.859L983.545 240.364V185.046C983.545 184.517 983.941 184.088 984.431 184.088C984.921 184.088 985.317 184.517 985.317 185.046V241.331C985.317 241.587 985.223 241.833 985.056 242.012C984.889 242.191 984.665 242.29 984.431 242.29Z" fill="white"/>
<path fill-rule="evenodd" clip-rule="evenodd" d="M990.796 29.7822C987.763 29.7822 985.296 27.3152 985.296 24.2822C985.296 21.2492 987.763 18.7822 990.796 18.7822C993.829 18.7822 996.296 21.2492 996.296 24.2822C996.296 27.3152 993.829 29.7822 990.796 29.7822ZM990.796 20.5492C988.737 20.5492 987.063 22.2232 987.063 24.2822C987.063 26.3412 988.737 28.0152 990.796 28.0152C992.855 28.0152 994.53 26.3412 994.53 24.2822C994.53 22.2232 992.855 20.5492 990.796 20.5492Z" fill="white"/>
<path fill-rule="evenodd" clip-rule="evenodd" d="M1.16212 169.94C1.00912 169.94 0.855123 169.897 0.719123 169.811C0.444123 169.639 0.276123 169.324 0.276123 168.981V160.043C0.276123 159.699 0.444123 159.384 0.719123 159.212C0.993123 159.041 1.33112 159.041 1.60512 159.212L8.76312 163.682C9.03712 163.853 9.20512 164.169 9.20512 164.511C9.20512 164.855 9.03712 165.17 8.76312 165.341L1.60512 169.811C1.46812 169.897 1.31412 169.94 1.16212 169.94ZM2.04812 161.703V167.321L6.54612 164.511L2.04812 161.703Z" fill="white"/>
<path fill-rule="evenodd" clip-rule="evenodd" d="M50.1206 10.047C49.6466 10.047 49.2526 9.63998 49.2356 9.12298C49.2176 8.59298 49.5996 8.14998 50.0896 8.12998L199.61 5.25198C200.085 5.23098 200.51 5.64698 200.528 6.17598C200.546 6.70498 200.163 7.14998 199.673 7.16898L50.1536 10.047H50.1206Z" fill="white"/>
<path fill-rule="evenodd" clip-rule="evenodd" d="M269.775 13.5916C266.742 13.5916 264.275 11.1246 264.275 8.09155C264.275 5.05855 266.742 2.59155 269.775 2.59155C272.808 2.59155 275.275 5.05855 275.275 8.09155C275.275 11.1246 272.808 13.5916 269.775 13.5916ZM269.775 4.35855C267.716 4.35855 266.042 6.03255 266.042 8.09155C266.042 10.1506 267.716 11.8246 269.775 11.8246C271.834 11.8246 273.509 10.1506 273.509 8.09155C273.509 6.03255 271.834 4.35855 269.775 4.35855Z" fill="white"/>
</svg>
