

<svg width="764" height="814" viewBox="0 0 764 814" fill="none" xmlns="http://www.w3.org/2000/svg">
<path fill-rule="evenodd" clip-rule="evenodd" d="M369.71 74.7523C543.81 74.7523 684.946 215.888 684.946 389.988C684.946 564.087 543.81 705.223 369.71 705.223C195.61 705.223 54.474 564.087 54.474 389.988C54.474 215.888 195.61 74.7523 369.71 74.7523ZM369.71 20.8943C319.906 20.8943 271.564 30.6603 226.025 49.9213C182.067 68.5143 142.601 95.1193 108.721 128.999C74.841 162.878 48.236 202.345 29.644 246.303C10.382 291.841 0.615967 340.184 0.615967 389.988C0.615967 439.792 10.382 488.133 29.644 533.672C48.236 577.629 74.841 617.097 108.721 650.977C142.601 684.856 182.067 711.461 226.025 730.054C271.564 749.315 319.906 759.082 369.71 759.082C419.513 759.082 467.856 749.315 513.395 730.054C557.353 711.461 596.819 684.856 630.699 650.977C664.578 617.097 691.184 577.629 709.776 533.672C729.038 488.133 738.804 439.792 738.804 389.988C738.804 340.184 729.038 291.841 709.776 246.303C691.184 202.345 664.578 162.878 630.699 128.999C596.819 95.1193 557.353 68.5143 513.395 49.9213C467.856 30.6603 419.513 20.8943 369.71 20.8943Z" fill="#FBBBD3"/>
<path d="M284.496 11.3993C283.735 11.5851 283.269 12.3522 283.455 13.1127C283.641 13.8732 284.408 14.3391 285.168 14.1534L284.496 11.3993ZM750.923 295.865L752.3 295.529L750.923 295.865ZM467.497 760.579C466.736 760.765 466.27 761.532 466.456 762.293C466.642 763.053 467.409 763.519 468.169 763.333L467.497 760.579ZM664.817 694.108C665.358 693.543 665.339 692.645 664.773 692.104C664.207 691.563 663.31 691.583 662.769 692.148L664.817 694.108ZM119.581 704.132C119.015 703.591 118.118 703.611 117.577 704.176C117.036 704.742 117.055 705.639 117.621 706.181L119.581 704.132ZM285.168 14.1534C491.288 -36.1959 699.197 90.0822 749.546 296.202L752.3 295.529C701.579 87.8885 492.136 -39.3214 284.496 11.3993L285.168 14.1534ZM749.546 296.202C799.894 502.322 673.616 710.231 467.497 760.579L468.169 763.333C675.81 712.614 803.02 503.171 752.3 295.529L749.546 296.202ZM662.769 692.148C516.081 845.455 272.887 850.82 119.581 704.132L117.621 706.181C272.059 853.951 517.047 848.546 664.817 694.108L662.769 692.148Z" fill="white"/>
<path fill-rule="evenodd" clip-rule="evenodd" d="M266.969 26.4272C263.328 26.4272 260.367 23.4662 260.367 19.8242C260.367 16.1832 263.328 13.2222 266.969 13.2222C270.61 13.2222 273.571 16.1832 273.571 19.8242C273.571 23.4662 270.61 26.4272 266.969 26.4272ZM266.969 15.3442C264.498 15.3442 262.489 17.3532 262.489 19.8242C262.489 22.2972 264.498 24.3062 266.969 24.3062C269.44 24.3062 271.45 22.2972 271.45 19.8242C271.45 17.3532 269.44 15.3442 266.969 15.3442Z" fill="white"/>
<path fill-rule="evenodd" clip-rule="evenodd" d="M438.05 776.888C434.41 776.888 431.449 773.927 431.449 770.286C431.449 766.644 434.41 763.683 438.05 763.683C441.691 763.683 444.653 766.644 444.653 770.286C444.653 773.927 441.691 776.888 438.05 776.888ZM438.05 765.804C435.579 765.804 433.571 767.814 433.571 770.286C433.571 772.757 435.579 774.767 438.05 774.767C440.521 774.767 442.532 772.757 442.532 770.286C442.532 767.814 440.521 765.804 438.05 765.804Z" fill="white"/>
<path fill-rule="evenodd" clip-rule="evenodd" d="M704.274 138.676L695.711 133.732C695.382 133.542 695.181 133.194 695.181 132.814C695.181 132.435 695.382 132.086 695.711 131.896L704.274 126.952C704.601 126.762 705.007 126.762 705.334 126.952C705.663 127.142 705.865 127.49 705.865 127.87V137.758C705.865 138.137 705.663 138.486 705.334 138.676C705.17 138.771 704.987 138.819 704.804 138.819C704.622 138.819 704.438 138.771 704.274 138.676ZM698.362 132.814L703.744 135.922V129.706L698.362 132.814Z" fill="white"/>
<path fill-rule="evenodd" clip-rule="evenodd" d="M733.895 609.788C733.712 609.788 733.529 609.741 733.365 609.645C733.036 609.456 732.835 609.106 732.835 608.727V598.839C732.835 598.46 733.036 598.111 733.365 597.921C733.692 597.731 734.098 597.731 734.425 597.921L742.988 602.866C743.317 603.056 743.518 603.403 743.518 603.784C743.518 604.163 743.317 604.512 742.988 604.702L734.425 609.645C734.262 609.741 734.078 609.788 733.895 609.788ZM734.956 600.676V606.892L740.337 603.784L734.956 600.676Z" fill="white"/>
</svg>
